<?xml version="1.0" encoding="UTF-8" standalone="no"?>
<!-- Created with Inkscape (http://www.inkscape.org/) -->

<svg
   xmlns:dc="http://purl.org/dc/elements/1.1/"
   xmlns:cc="http://creativecommons.org/ns#"
   xmlns:rdf="http://www.w3.org/1999/02/22-rdf-syntax-ns#"
   xmlns:svg="http://www.w3.org/2000/svg"
   xmlns="http://www.w3.org/2000/svg"
   xmlns:sodipodi="http://sodipodi.sourceforge.net/DTD/sodipodi-0.dtd"
   xmlns:inkscape="http://www.inkscape.org/namespaces/inkscape"
   width="84.177528mm"
   height="78.928467mm"
   viewBox="0 0 298.26683 279.66779"
   id="svg2"
   version="1.1"
   inkscape:version="0.91 r13725"
   sodipodi:docname="PapyrusIMIntro.svg">
  <defs
     id="defs4" />
  <sodipodi:namedview
     id="base"
     pagecolor="#ffffff"
     bordercolor="#666666"
     borderopacity="1.0"
     inkscape:pageopacity="0.0"
     inkscape:pageshadow="2"
     inkscape:zoom="1.4"
     inkscape:cx="282.88748"
     inkscape:cy="151.67866"
     inkscape:document-units="px"
     inkscape:current-layer="layer1"
     showgrid="false"
     inkscape:window-width="1920"
     inkscape:window-height="1005"
     inkscape:window-x="-9"
     inkscape:window-y="-9"
     inkscape:window-maximized="1"
     fit-margin-top="0"
     fit-margin-left="0"
     fit-margin-right="0"
     fit-margin-bottom="0" />
  <metadata
     id="metadata7">
    <rdf:RDF>
      <cc:Work
         rdf:about="">
        <dc:format>image/svg+xml</dc:format>
        <dc:type
           rdf:resource="http://purl.org/dc/dcmitype/StillImage" />
        <dc:title></dc:title>
      </cc:Work>
    </rdf:RDF>
  </metadata>
  <g
     inkscape:groupmode="layer"
     id="layer2"
     inkscape:label="Layer 2"
     transform="translate(-267.29515,-119.67119)">
    <ellipse
       style="fill:#ffffff;fill-opacity:1;fill-rule:evenodd;stroke:#828282;stroke-width:2.0042572;stroke-linecap:butt;stroke-linejoin:miter;stroke-miterlimit:4;stroke-dasharray:none;stroke-opacity:1"
       id="path3352"
       cx="349.32169"
       cy="335.54401"
       transform="matrix(0.9809653,-0.19418312,0.21981053,0.97554258,0,0)"
       rx="147.71155"
       ry="139.21938" />
  </g>
  <g
     inkscape:label="Layer 1"
     inkscape:groupmode="layer"
     id="layer1"
     transform="translate(-267.29515,-119.67119)">
    <g
       transform="matrix(0.92745536,0,0,0.9594927,300.72371,-636.86547)"
       id="layer1-1">
      <g
         transform="matrix(0.75967697,0,0,0.75967697,-186.41738,668.79084)"
         id="g4264">
        <path
           inkscape:connector-curvature="0"
           style="fill:#333333;fill-rule:evenodd;stroke:none;stroke-width:0.1;stroke-linecap:butt;stroke-linejoin:miter;stroke-miterlimit:4;stroke-dasharray:none;stroke-opacity:1"
           d="m 304.03642,381.6922 0,93.99991 c 8.81009,-0.83989 22.59931,-8.37515 22.59928,-17.46745 l 3e-4,-40.65114 18.20722,26.37101 18.52678,-26.37101 -3.5e-4,40.65114 c 0,9.0923 13.47035,16.62756 22.28044,17.46745 l 0,-94 -22.28009,9e-5 -19.16443,30.09444 L 326.636,381.6922 Z"
           id="path4158" />
        <path
           inkscape:connector-curvature="0"
           style="fill:#333333;fill-rule:evenodd;stroke:none;stroke-width:0.1;stroke-linecap:butt;stroke-linejoin:miter;stroke-miterlimit:4;stroke-dasharray:none;stroke-opacity:1"
           d="m 287.51088,381.69211 0,94 -24.29944,0 0,-94 z"
           id="path4182" />
        <g
           id="g4472"
           transform="matrix(1.9613685,0,0,1.9613685,-535.78471,-437.46731)">
          <path
             inkscape:connector-curvature="0"
             d="m 478.90545,465.56824 c -0.0707,-25.48799 10.56242,-49.80276 24.56244,-70.67299 3.97462,-6.78233 10.724,-12.0573 12.40325,-20.02743 1.70986,-6.12856 -3.76865,-8.85151 -10.0891,-9.29581 -8.18768,-0.94845 -18.17869,-3.56685 -21.52319,-12.01391 -2.52631,-8.62666 3.15264,-17.72024 10.31102,-22.25916 7.97337,-5.0843 17.51538,-7.02814 26.83701,-7.62268 1.98273,-0.11411 2.35946,-0.2201 6.99353,0.0632 8.89692,0.37166 17.26123,6.45007 19.58576,15.16427 3.39146,11.78995 1.04055,24.54267 -3.40805,35.73687 -5.45657,13.17192 -13.6897,24.99752 -22.91098,35.79369 -10.64621,14.18357 -14.61294,32.47203 -13.21619,49.95192 -10.00529,2.95278 -24.61313,5.30148 -29.5455,5.18203 z"
             id="path3037"
             style="font-style:normal;font-weight:bold;font-size:medium;font-family:'Liberation Sans Narrow';text-align:start;text-anchor:start;fill:#98bf0c;fill-opacity:1;stroke:none" />
          <path
             inkscape:connector-curvature="0"
             d="m 510.66174,459.64997 c -1.67702,-19.63623 3.93609,-40.33536 17.62062,-54.89726 9.99638,-12.80633 19.01802,-27.12932 22.28176,-43.25379 1.94078,-10.45822 2.1922,-22.7651 -5.25543,-31.23818 -1.34874,-1.61199 -7.35666,-4.81932 -2.15232,-2.95098 5.34687,1.48988 8.21604,4.7277 11.01238,8.60445 14.81763,19.08449 19.98801,45.38166 12.55614,68.47401 -8.0608,26.24653 -30.38921,46.59838 -56.06315,55.26175 z"
             id="path3039"
             style="font-style:normal;font-weight:bold;font-size:medium;font-family:'Liberation Sans Narrow';text-align:start;text-anchor:start;fill:#0099ba;fill-opacity:1;stroke:none" />
          <path
             inkscape:connector-curvature="0"
             d="m 398.28073,416.59491 c 0.74641,-23.9367 13.16198,-47.37899 33.14739,-60.78947 15.85789,-10.89681 35.01741,-15.93078 53.99317,-17.65754 -3.2584,5.12342 -5.27978,12.08949 -2.28476,17.88718 1.72073,3.92462 7.00014,5.8869 6.3823,6.22975 -27.28026,0.024 -55.44101,9.65367 -74.34268,29.86723 -7.05962,7.4543 -12.62874,16.23391 -16.84384,25.57172 -0.0611,-0.3661 -0.0453,-0.73893 -0.0517,-1.10887 z"
             id="path3041"
             style="font-style:normal;font-weight:bold;font-size:medium;font-family:'Liberation Sans Narrow';text-align:start;text-anchor:start;fill:#333333;fill-opacity:1;stroke:none" />
          <path
             inkscape:connector-curvature="0"
             d="m 515.72105,343.21407 c -1.5421,-0.17167 -2.77828,-0.56723 -3.65775,-1.17045 -0.39191,-0.26883 -0.82313,-0.74118 -1.00619,-1.1022 -0.15215,-0.30004 -0.169,-0.38705 -0.169,-0.87302 0,-0.4772 0.0184,-0.5776 0.16054,-0.86641 0.83993,-1.70916 4.007,-2.84346 7.09708,-2.54184 1.78757,0.17449 3.20398,0.71925 4.06059,1.56177 0.57229,0.56289 0.73571,0.91621 0.73571,1.59081 0,0.67949 -0.16094,1.02201 -0.76304,1.62405 -1.12465,1.1245 -3.26292,1.82708 -5.49134,1.80438 -0.43782,-0.005 -0.87278,-0.0165 -0.9666,-0.0271 z"
             id="path3043"
             style="font-style:normal;font-weight:bold;font-size:medium;font-family:'Liberation Sans Narrow';text-align:start;text-anchor:start;fill:#333333;fill-opacity:1;stroke:none" />
        </g>
      </g>
    </g>
  </g>
</svg>
