<?xml version="1.0" encoding="UTF-8" standalone="no"?>
<!-- Generator: Adobe Illustrator 17.1.0, SVG Export Plug-In . SVG Version: 6.00 Build 0)  -->

<svg
   xmlns:dc="http://purl.org/dc/elements/1.1/"
   xmlns:cc="http://creativecommons.org/ns#"
   xmlns:rdf="http://www.w3.org/1999/02/22-rdf-syntax-ns#"
   xmlns:svg="http://www.w3.org/2000/svg"
   xmlns="http://www.w3.org/2000/svg"
   xmlns:sodipodi="http://sodipodi.sourceforge.net/DTD/sodipodi-0.dtd"
   xmlns:inkscape="http://www.inkscape.org/namespaces/inkscape"
   version="1.1"
   id="Capa_1"
   x="0px"
   y="0px"
   viewBox="0 0 81.512319 81.140729"
   xml:space="preserve"
   sodipodi:docname="gear1.svg"
   width="81.512321"
   height="81.140732"
   inkscape:version="0.92.2 (5c3e80d, 2017-08-06)"><metadata
     id="metadata178"><rdf:RDF><cc:Work
         rdf:about=""><dc:format>image/svg+xml</dc:format><dc:type
           rdf:resource="http://purl.org/dc/dcmitype/StillImage" /></cc:Work></rdf:RDF></metadata><defs
     id="defs176" /><sodipodi:namedview
     pagecolor="#ffffff"
     bordercolor="#666666"
     borderopacity="1"
     objecttolerance="10"
     gridtolerance="10"
     guidetolerance="10"
     inkscape:pageopacity="0"
     inkscape:pageshadow="2"
     inkscape:window-width="1920"
     inkscape:window-height="1052"
     id="namedview174"
     showgrid="false"
     inkscape:zoom="2.1671854"
     inkscape:cx="-52.163516"
     inkscape:cy="-26.272285"
     inkscape:window-x="1920"
     inkscape:window-y="0"
     inkscape:window-maximized="1"
     inkscape:current-layer="Capa_1" /><path
     d="m 42.514254,49.831634 -2.22013,-4.92867 c 2.11646,-1.55356 3.93425,-3.48626 5.35458,-5.69216 l 5.05517,1.91548 c 0.96672,0.3664 2.04685,-0.12052 2.41288,-1.08686 l 1.85784,-4.90397 c 0.1759,-0.46409 0.16018,-0.97907 -0.0438,-1.43156 -0.20398,-0.45248 -0.57899,-0.80541 -1.04345,-0.98131 l -5.05517,-1.915482 c 0.39822,-2.593642 0.31738,-5.244921 -0.2384,-7.811242 l 4.92867,-2.220128 c 0.45248,-0.203973 0.80541,-0.578985 0.98131,-1.043445 0.17591,-0.464086 0.16019,-0.979072 -0.0438,-1.431556 l -2.15389,-4.781209 c -0.42441,-0.942394 -1.53298,-1.361569 -2.47462,-0.937529 l -4.92867,2.220128 c -1.55357,-2.116457 -3.48626,-3.934252 -5.69217,-5.3545796 l 1.91548,-5.05517 c 0.36603,-0.966347 -0.12051,-2.046844 -1.08686,-2.412873 l -4.90359,-1.85821604 c -0.46372,-0.175529 -0.9787,-0.160184 -1.43156,0.04379 -0.45248,0.203973 -0.80541,0.578985 -0.98132,1.04344504 l -1.915101,5.054796 c -2.596262,-0.400462 -5.252032,-0.31775 -7.811617,0.238031 l -2.219753,-4.928295 c -0.203974,-0.452484 -0.578985,-0.80541404 -1.043446,-0.98131704 -0.463711,-0.17553 -0.979071,-0.160185 -1.431555,0.04379 L 13.519698,2.7894064 c -0.942394,0.424414 -1.361943,1.532232 -0.937529,2.474626 l 2.220128,4.9286686 c -2.116457,1.553566 -3.934252,3.48626 -5.3545796,5.692166 l -5.05517,-1.915478 c -0.463712,-0.175529 -0.978697,-0.15981 -1.431556,0.04379 -0.452484,0.203973 -0.805414,0.578985 -0.981317,1.043445 l -1.85784096,4.903593 c -0.36603,0.966347 0.120512,2.046844 1.08685896,2.412873 l 5.05517,1.915478 c -0.398216,2.593268 -0.317375,5.245296 0.238406,7.811236 l -4.929044,2.22013 c -0.452484,0.20397 -0.80541396,0.57899 -0.98131696,1.04345 -0.175904,0.46408 -0.160185,0.97907 0.04379,1.43155 l 2.15388296,4.78121 c 0.203599,0.45248 0.578985,0.80541 1.043071,0.98132 0.46446,0.1759 0.979072,0.16056 1.431556,-0.0438 l 4.9286686,-2.22013 c 1.553565,2.11683 3.485885,3.93425 5.692165,5.35458 l -1.915478,5.05517 c -0.366029,0.96635 0.120513,2.04685 1.08686,2.41287 l 4.903967,1.85785 c 0.213705,0.0808 0.438637,0.12126 0.66282,0.12126 0.262358,0 0.524717,-0.055 0.768736,-0.16505 0.452484,-0.20398 0.805414,-0.57899 0.981318,-1.04345 l 1.915103,-5.05479 c 2.596262,0.40008 5.252407,0.31775 7.811617,-0.23803 l 2.21975,4.92829 c 0.20398,0.45248 0.57899,0.80541 1.04345,0.98132 0.46408,0.1759 0.97944,0.16056 1.43155,-0.0438 l 4.78121,-2.15351 c 0.94277,-0.42441 1.36269,-1.53223 0.93828,-2.47463 z m -3.10114,-17.78834 c -1.85747,4.90284 -6.6267,8.19673 -11.867507,8.19673 -1.532981,0 -3.044629,-0.27845 -4.493027,-0.82712 -3.169259,-1.20063 -5.681312,-3.56373 -7.073196,-6.65402 -1.391884,-3.089915 -1.497052,-6.537251 -0.296416,-9.70651 1.857467,-4.902845 6.6267,-8.196733 11.867504,-8.196733 1.532981,0 3.044629,0.278451 4.493032,0.827121 3.16925,1.200635 5.68131,3.563732 7.07319,6.653647 1.39226,3.090289 1.49743,6.537625 0.29642,9.706885 z m 41.60644,25.55318 c -0.33534,-0.36566 -0.8028,-0.5831 -1.29832,-0.60444 l -3.52481,-0.1512 c -0.32449,-1.6636 -0.91058,-3.26956 -1.73396,-4.75202 l 2.59926,-2.38555 c 0.76162,-0.69875 0.81215,-1.88254 0.1134,-2.64379 l -2.58092,-2.81221 c -0.33534,-0.36566 -0.80279,-0.58311 -1.29869,-0.60444 -0.49478,-0.0183 -0.97982,0.15569 -1.34548,0.49103 l -2.59888,2.38556 c -1.40685,-0.94726 -2.95668,-1.66847 -4.58622,-2.13405 l 0.1512,-3.52481 c 0.0442,-1.03259 -0.75713,-1.90537 -1.78972,-1.94954 l -3.81337,-0.16355 c -1.02735,-0.0389 -1.90537,0.75714 -1.94953,1.78935 l -0.15121,3.52481 c -1.66322,0.32449 -3.26918,0.91058 -4.75201,1.73359 l -2.38555,-2.59926 c -0.33534,-0.36565 -0.8028,-0.5831 -1.29832,-0.60443 -0.49553,-0.0202 -0.97982,0.15569 -1.34548,0.49103 l -2.81221,2.58092 c -0.76162,0.69875 -0.81215,1.88254 -0.1134,2.64379 l 2.38555,2.59926 c -0.94726,1.40685 -1.66846,2.9563 -2.13405,4.58621 l -3.52443,-0.1512 c -1.0281,-0.0415 -1.90575,0.75676 -1.94991,1.78935 l -0.16355,3.81337 c -0.0213,0.4959 0.15532,0.97982 0.49103,1.34547 0.33534,0.36566 0.80279,0.58311 1.29869,0.60444 l 3.52444,0.15083 c 0.32448,1.6636 0.91058,3.26956 1.73358,4.75239 l -2.59888,2.38555 c -0.36565,0.33534 -0.5831,0.80279 -0.60443,1.29832 -0.0213,0.4959 0.15531,0.97982 0.49103,1.34547 l 2.58092,2.81222 c 0.33534,0.36565 0.80279,0.5831 1.29869,0.60443 0.49365,0.0198 0.97982,-0.15569 1.34547,-0.49103 l 2.59889,-2.38555 c 1.40685,0.94725 2.95667,1.66846 4.58621,2.13404 l -0.1512,3.52481 c -0.0442,1.03259 0.75676,1.90537 1.78935,1.94954 l 3.81337,0.16355 c 0.0269,0.001 0.0535,0.002 0.0801,0.002 0.46783,0 0.91956,-0.17516 1.26538,-0.49253 0.36566,-0.33534 0.58311,-0.8028 0.60444,-1.29832 l 0.1512,-3.52481 c 1.66323,-0.32449 3.26919,-0.91058 4.75202,-1.73359 l 2.38555,2.59926 c 0.33534,0.36566 0.80279,0.5831 1.29832,0.60444 0.49777,0.0217 0.98019,-0.1557 1.34547,-0.49104 l 2.81222,-2.58092 c 0.76162,-0.69874 0.81215,-1.88254 0.1134,-2.64379 l -2.38556,-2.59926 c 0.94726,-1.40685 1.66847,-2.9563 2.13405,-4.58621 l 3.52444,0.1512 c 1.03146,0.0397 1.90537,-0.75676 1.94991,-1.78935 l 0.16355,-3.81337 c 0.0213,-0.4959 -0.15532,-0.97982 -0.49103,-1.34547 z m -21.07887,11.06471 c -4.80703,-0.20585 -8.55041,-4.28457 -8.34419,-9.0916 0.2006,-4.68353 4.02669,-8.35243 8.71022,-8.35243 0.1265,0 0.25375,0.003 0.38138,0.008 4.80703,0.20622 8.55041,4.28456 8.34419,9.09159 -0.20622,4.81041 -4.24527,8.5478 -9.0916,8.3442 z"
     id="path141"
     inkscape:connector-curvature="0"
     style="stroke-width:0.37426296" /><g
     id="g143"
     transform="translate(-68.141376,-68.325856)" /><g
     id="g145"
     transform="translate(-68.141376,-68.325856)" /><g
     id="g147"
     transform="translate(-68.141376,-68.325856)" /><g
     id="g149"
     transform="translate(-68.141376,-68.325856)" /><g
     id="g151"
     transform="translate(-68.141376,-68.325856)" /><g
     id="g153"
     transform="translate(-68.141376,-68.325856)" /><g
     id="g155"
     transform="translate(-68.141376,-68.325856)" /><g
     id="g157"
     transform="translate(-68.141376,-68.325856)" /><g
     id="g159"
     transform="translate(-68.141376,-68.325856)" /><g
     id="g161"
     transform="translate(-68.141376,-68.325856)" /><g
     id="g163"
     transform="translate(-68.141376,-68.325856)" /><g
     id="g165"
     transform="translate(-68.141376,-68.325856)" /><g
     id="g167"
     transform="translate(-68.141376,-68.325856)" /><g
     id="g169"
     transform="translate(-68.141376,-68.325856)" /><g
     id="g171"
     transform="translate(-68.141376,-68.325856)" /></svg>