<?xml version="1.0" encoding="iso-8859-1"?>
<!-- Generator: Adobe Illustrator 16.0.0, SVG Export Plug-In . SVG Version: 6.00 Build 0)  -->
<!DOCTYPE svg PUBLIC "-//W3C//DTD SVG 1.1//EN" "http://www.w3.org/Graphics/SVG/1.1/DTD/svg11.dtd">
<svg version="1.1" id="Capa_1" xmlns="http://www.w3.org/2000/svg" xmlns:xlink="http://www.w3.org/1999/xlink" x="0px" y="0px"
	 width="485.211px" height="485.212px" viewBox="0 0 485.211 485.212" style="enable-background:new 0 0 485.211 485.212;"
	 xml:space="preserve">
<g>
	<g>
		<path d="M154.621,203.866c6.516,20.229,17.117,39.271,31.629,54.787v0.065c31.451,30.322,81.237,30.322,112.688,0
			c15.873-16.899,26.71-37.91,33.342-60.019c0.621-3.36,3.855-5.02,6.012-7.33c11.611-11.607,13.894-31.202,5.185-45.149
			c-1.186-2.117-3.322-3.953-3.201-6.576c0-17.782,0.089-35.596-0.023-53.366c-0.476-21.455-6.608-43.772-21.65-59.659
			c-12.144-12.837-28.819-20.477-46.022-23.751c-21.739-4.146-44.482-3.937-66.013,1.54c-18.659,4.709-36.189,15.635-47.028,31.837
			c-9.598,14.083-13.803,31.185-14.513,48.036c-0.266,18.094-0.061,36.233-0.116,54.372c0.413,3.631-2.667,6.088-4.058,9.094
			c-8.203,14.881-4.592,35.155,8.589,45.978C152.784,196.032,153.405,200.239,154.621,203.866z"/>
		<path d="M394.236,342.109h-30.327c-29.612,0-54.166-21.23-59.491-49.279c-18.542,12.438-39.722,18.952-61.811,18.952
			c-22.302,0-43.623-6.659-61.809-18.836c-5.391,27.988-29.939,49.163-59.494,49.163H90.978c0,0-54.964,15.159-90.978,90.98v21.795
			c0,16.764,13.595,30.327,30.327,30.327h424.562c16.759,0,30.322-13.563,30.322-30.327V433.09
			C449.2,357.269,394.236,342.109,394.236,342.109z"/>
	</g>
</g>
<g>
</g>
<g>
</g>
<g>
</g>
<g>
</g>
<g>
</g>
<g>
</g>
<g>
</g>
<g>
</g>
<g>
</g>
<g>
</g>
<g>
</g>
<g>
</g>
<g>
</g>
<g>
</g>
<g>
</g>
</svg>
